Simulation
nRows=24
nColumns=15
endheader
time  TH_x TH_y TH_z SC_y  SC_z  SC_x  AC_y  AC_z  AC_x  GH_y  GH_z  GH_yy  EL_x  PS_y
0.0  0.000000  0.000000  0.000000  -40.92293475556319  3.0915420670788674  4.59866866435178  64.45545023755604  -2.4436512913539286  15.806185364338736  -7.1707753349713395  48.712772829509575  30.819793071047243  12.85581775743684  120.000000
0.05745  0.000000  0.000000  0.000000  -45.61081622516119  -7.642077774389682  3.7785894528460657  64.9902529978205  3.028987026398405  3.7341783882835515  -1.1595369427683955  54.66334079731583  24.620444918951296  30.128968817124587  120.000000
0.1149  0.000000  0.000000  0.000000  -45.389400596320506  -2.2184714312861535  -4.0457976200099415  44.6049519685394  5.472521665005848  -1.503376210200951  42.938641971202166  65.93654788637674  -22.550553705472044  25.49428015430208  120.000000
0.17235  0.000000  0.000000  0.000000  -46.84601355628327  -5.568923203741876  -8.809588234257182  45.209849415605966  4.820495725895671  -2.214308816266713  47.04842591881781  67.56330702808913  -27.932192384791954  23.365463688801533  120.000000
0.2298  0.000000  0.000000  0.000000  -48.673040840985294  -2.102442628619781  -1.2166639402465034  56.67964461023075  3.2793110466467636  6.252933995483754  42.472370574335166  47.960256653473486  -31.220433141529398  22.092424128949254  120.000000
0.28725  0.000000  0.000000  0.000000  -45.603576072095095  9.623515223254369  4.287668583792748  67.33285944802574  6.903857044289609  20.641868329380113  1.9661340976747879  14.01535029105  -17.43079205389328  29.09595090533407  120.000000
0.3447  0.000000  0.000000  0.000000  -48.24725181049039  0.7800766847912994  -7.4835623235198545  66.70271469079793  8.007126079709323  19.605336221868477  23.426785835079762  21.916790805762275  -43.38357841773111  25.938043682324395  120.000000
0.40215  0.000000  0.000000  0.000000  -43.742446065933414  -10.79570330159212  0.06551888512347266  55.41624154875465  -11.281525197344688  1.2087830977746175  33.836906039515846  39.288932164431955  -55.00351670017823  22.7822856707027  120.000000
0.4596  0.000000  0.000000  0.000000  -31.05006251098781  -6.119525192927158  -3.570384874111707  40.35026380717406  -3.5354164071926037  -6.651122635445006  59.80052548159143  45.419311094117475  -80.46091024064609  21.71476588780571  120.000000
0.51705  0.000000  0.000000  0.000000  -38.504036055896414  -0.6508395200841872  -10.855313418697508  40.92387802493709  9.324683355876575  0.598765911532618  73.15982205724274  38.21939773406581  -93.27678360129389  25.49220227376769  120.000000
0.5745  0.000000  0.000000  0.000000  -55.154178748774065  2.9057402189548798  -16.30106215427498  42.25464505121746  11.483257137056256  8.84778596660708  66.5122549366704  44.2941408130524  -86.78945026136678  23.542272304073126  120.000000
0.63195  0.000000  0.000000  0.000000  -46.04368601927871  12.247625846766836  -12.87765128008086  37.317917047582064  6.869033934545901  7.568198875382175  58.02986190406814  43.61957249266439  -77.85207022483365  20.804905590686097  120.000000
0.6894  0.000000  0.000000  0.000000  -31.778091712034637  23.398413073682374  2.2279876764979543  39.228930899132145  0.9942122429710181  9.770610446600084  24.541345236909873  11.781739554814196  -39.781438683420156  29.35891448205564  120.000000
0.74685  0.000000  0.000000  0.000000  -47.691865812462474  10.002995597502485  -5.036726452426377  68.10345382452964  -1.0713149188780915  26.982094783541434  -17.51343555831886  45.375874917390604  18.149281465608663  22.063373381158485  120.000000
0.8043  0.000000  0.000000  0.000000  -58.12075860291999  8.699320432962763  -11.792141584089226  58.33197871650899  3.605656988346319  21.018843537354606  12.158676150550704  26.948249059628974  -31.93739150927997  19.373167594797597  120.000000
0.86175  0.000000  0.000000  0.000000  -40.18617597405192  16.153218702685404  -12.421808130949636  39.25110129988892  2.777339446456624  10.225844639786793  60.19002939522398  28.300400064434285  -77.84150521922301  18.641283446193814  120.000000
0.9192  0.000000  0.000000  0.000000  -36.015955375536755  3.1200233295436672  -12.623234225716326  49.480846208650796  -3.0744214096882745  13.675168176943473  3.4140706676363344  52.3767317933872  19.067954281671373  18.372889822494074  120.000000
0.97665  0.000000  0.000000  0.000000  -43.71050574684973  -6.366091994406775  -7.849225567783441  39.24892464241341  5.156282473799779  -8.825382125039807  37.62155766402613  57.49524040172952  -10.112002475402631  28.833334238860516  120.000000
1.0341  0.000000  0.000000  0.000000  -55.042745471143476  -1.3561807261539556  2.855105433955311  47.57730604223809  5.6119591851645145  -4.690383143055488  42.13307570544241  50.730515641019245  -20.249755401242112  29.09306651299106  120.000000
1.09155  0.000000  0.000000  0.000000  -51.853818336404906  4.033452555798555  -0.049833136824610234  62.92509531847638  5.3901651260356935  14.432270164420913  4.424345439051781  55.8956115944382  17.36893599342169  23.6602789795638  120.000000
1.149  0.000000  0.000000  0.000000  -38.77087160234703  5.75560134677485  -6.136175174847828  56.02937509581886  14.106553206940267  16.10635678045478  -0.03336683306207476  50.025570129884024  20.02556998766271  27.289581414132613  120.000000
1.20645  0.000000  0.000000  0.000000  -46.68512600458305  -2.892507706863914  -13.44047467007719  65.92473794952393  21.440473414505636  15.89294301004749  -2.9293753147106814  59.20577132490456  30.99675676236613  26.129142527983802  120.000000
1.2639  0.000000  0.000000  0.000000  -57.19970198267269  6.947360460538252  -11.854021696896002  65.39958223198579  9.330467243894686  24.884365216968217  8.245531492671192  53.54453502805393  15.097678131219817  25.40523948418935  120.000000
1.32135  0.000000  0.000000  0.000000  -49.38187425601863  26.465780674034807  -11.666659595258972  49.42563122055826  5.912787044624355  26.28262114118769  57.32306193057012  32.70458869263329  -38.34003925769899  23.17065593166869  120.000000
